<?xml version="1.0" standalone="no"?>
<!DOCTYPE svg PUBLIC "-//W3C//DTD SVG 20010904//EN"
 "http://www.w3.org/TR/2001/REC-SVG-20010904/DTD/svg10.dtd">
<svg version="1.0" xmlns="http://www.w3.org/2000/svg"
 width="600.000000pt" height="600.000000pt" viewBox="0 0 600.000000 600.000000"
 preserveAspectRatio="xMidYMid meet">
<metadata>
Created by potrace 1.14, written by Peter Selinger 2001-2017
</metadata>
<g transform="translate(0.000000,600.000000) scale(0.100000,-0.100000)"
fill="#000000" stroke="none">
<path d="M4150 4685 c-90 -38 -232 -79 -315 -90 -106 -15 -127 -42 -151 -197
-24 -150 -17 -140 -125 -162 -52 -10 -148 -32 -214 -48 -105 -26 -134 -29
-235 -27 -235 7 -541 0 -735 -16 -110 -9 -315 -20 -455 -25 -251 -8 -350 -19
-377 -41 -20 -17 -16 -45 11 -76 l24 -28 224 3 c247 4 331 12 428 44 61 19 95
21 515 27 l450 6 80 -26 c44 -15 124 -43 178 -64 54 -20 101 -34 105 -30 13
13 -81 85 -140 107 -59 21 -79 41 -62 58 9 9 324 74 328 68 1 -2 12 -25 25
-53 31 -67 94 -148 144 -185 32 -24 51 -30 89 -30 51 0 459 108 514 136 56 28
64 56 64 216 0 78 4 148 8 155 4 6 52 31 107 54 95 40 134 63 124 73 -2 2 -51
-7 -109 -20 -58 -13 -115 -24 -126 -24 -16 0 -40 24 -87 88 -87 117 -107 133
-159 138 -33 3 -63 -4 -128 -31z m194 -68 c17 -19 49 -60 70 -91 44 -65 42
-70 -31 -81 -32 -5 -43 -11 -43 -24 0 -16 18 -80 25 -89 2 -2 23 11 49 29 25
18 48 30 52 27 3 -4 10 -37 16 -75 7 -51 6 -84 -4 -133 -17 -86 -37 -90 -114
-25 -29 26 -54 43 -54 40 0 -4 18 -35 40 -68 22 -33 39 -61 37 -63 -1 -1 -99
-30 -217 -64 -153 -43 -223 -59 -244 -54 -45 10 -132 103 -168 181 -26 56 -33
83 -36 156 -5 103 17 203 52 236 19 18 212 71 382 106 l31 6 21 -127 c11 -69
23 -129 26 -132 13 -13 15 8 6 64 -14 86 -12 139 7 179 22 46 54 47 97 2z
m-1416 -484 c-38 -2 -98 -2 -135 0 -38 2 -7 3 67 3 74 0 105 -1 68 -3z"/>
<path d="M4030 4542 c0 -4 5 -13 10 -18 7 -7 2 -18 -15 -34 -20 -19 -27 -21
-40 -10 -8 7 -18 11 -20 8 -3 -3 1 -11 10 -18 14 -12 14 -15 -1 -31 -18 -21
-6 -27 14 -7 16 16 63 -27 55 -50 -4 -10 -2 -13 5 -8 6 4 21 2 33 -4 19 -11
20 -10 9 10 -18 33 26 91 45 60 3 -5 11 -10 17 -10 6 0 3 9 -7 20 -18 20 -18
22 -1 51 23 39 15 48 -13 13 -17 -22 -23 -24 -36 -14 -14 12 -14 15 1 31 19
21 6 27 -14 7 -10 -10 -17 -10 -32 0 -11 7 -20 9 -20 4z m60 -76 c0 -6 -7 -20
-15 -30 -14 -19 -15 -19 -35 -1 l-20 18 21 24 c17 17 25 20 36 12 7 -6 13 -17
13 -23z"/>
<path d="M3790 4156 c0 -4 12 -32 26 -61 26 -55 95 -125 123 -125 24 0 282 73
277 78 -3 2 -52 -1 -109 -8 -136 -16 -164 -10 -229 48 -68 61 -88 76 -88 68z"/>
<path d="M1075 4095 c-5 -2 -22 -6 -37 -9 -39 -9 -88 -54 -109 -101 -17 -38
-19 -84 -19 -776 l0 -735 25 -50 c18 -36 37 -57 67 -75 l43 -24 1108 -3 c1089
-2 1107 -2 1107 17 0 11 3 26 6 35 5 14 -103 16 -1103 18 -1052 3 -1109 4
-1135 21 -14 10 -31 32 -37 49 -15 42 -15 1438 0 1490 16 60 42 68 226 68 196
0 203 2 203 46 l0 34 -167 -1 c-93 0 -172 -2 -178 -4z"/>
<path d="M4613 4094 c-14 -6 -17 -32 -7 -58 5 -14 29 -16 165 -16 97 0 168 -4
183 -11 57 -26 56 -12 56 -799 0 -790 1 -771 -58 -801 -22 -12 -161 -14 -780
-17 -676 -2 -753 -4 -748 -18 3 -9 6 -24 6 -35 0 -19 13 -19 758 -17 l757 3
44 25 c28 16 52 39 65 65 21 39 21 53 24 775 2 504 0 747 -8 772 -13 45 -52
93 -94 116 -25 13 -64 17 -191 19 -88 1 -166 0 -172 -3z"/>
<path d="M1262 3853 c-20 -18 -20 -32 -25 -660 -4 -550 -3 -644 10 -662 11
-17 25 -21 67 -21 31 0 58 5 64 13 6 7 14 36 18 66 6 44 11 54 33 63 31 12
117 4 137 -13 8 -6 14 -29 14 -51 0 -42 34 -88 65 -88 26 0 74 29 86 52 13 24
30 1229 19 1278 -12 48 -132 46 -143 -3 -3 -12 -9 -236 -13 -497 -4 -289 -10
-480 -17 -487 -6 -9 -37 -13 -88 -13 -51 0 -81 4 -86 13 -4 6 -8 234 -8 505 0
477 -1 494 -19 508 -27 19 -90 18 -114 -3z"/>
<path d="M2240 3850 c-11 -11 -22 -30 -25 -42 -8 -36 -226 -1188 -232 -1231
-14 -95 91 -104 160 -13 34 44 76 51 213 39 l98 -8 29 -42 c27 -41 31 -43 76
-43 63 0 75 15 68 83 -3 29 -53 318 -112 642 -121 668 -111 635 -202 635 -39
0 -58 -5 -73 -20z m139 -745 c32 -176 57 -323 54 -327 -5 -9 -237 -11 -245 -3
-5 5 108 638 119 665 8 20 3 44 72 -335z"/>
<path d="M2883 3848 c-7 -8 -12 -256 -16 -666 l-5 -652 21 -15 c31 -22 93 -19
117 5 16 16 20 33 20 90 0 88 14 121 79 192 89 96 133 164 175 268 54 132 73
323 46 459 -31 160 -139 276 -294 317 -64 17 -130 18 -143 2z m200 -198 c119
-104 123 -372 9 -595 -64 -127 -61 -140 -62 263 0 226 4 362 10 362 5 0 25
-13 43 -30z"/>
<path d="M3582 3848 c-9 -9 -12 -101 -13 -347 0 -185 -4 -473 -8 -641 -7 -278
-7 -307 9 -330 20 -29 48 -36 94 -20 42 14 56 44 56 126 0 78 7 92 75 165 148
156 222 331 232 549 5 124 -9 216 -46 288 -30 59 -104 135 -161 166 -90 49
-211 71 -238 44z m196 -193 c112 -94 123 -374 22 -578 -17 -34 -41 -76 -55
-92 l-24 -30 -1 363 c0 397 -2 387 58 337z"/>
<path d="M4284 3824 c-22 -21 -25 -32 -22 -67 5 -44 81 -325 172 -632 80 -270
89 -347 55 -497 -16 -71 -6 -107 34 -121 44 -14 86 8 108 57 9 23 34 124 54
226 66 336 167 821 190 911 20 76 19 102 -4 123 -26 24 -91 31 -115 13 -17
-13 -63 -201 -146 -601 -6 -32 -15 -54 -20 -50 -4 5 -29 90 -55 189 -73 280
-116 428 -131 453 -21 33 -86 31 -120 -4z"/>
<path d="M3317 2373 c-3 -5 -8 -68 -12 -142 -6 -107 -11 -137 -25 -151 -23
-23 -123 -61 -177 -67 -37 -5 -46 -2 -72 24 -16 16 -35 48 -42 71 -16 56 -44
85 -72 76 -12 -4 -55 -34 -94 -66 -40 -33 -77 -57 -82 -54 -5 3 -12 25 -15 49
-9 56 -40 107 -67 107 -31 0 -57 -17 -136 -88 l-73 -64 0 60 c0 50 -4 65 -22
82 -25 23 -31 19 -47 -31 -14 -43 -47 -76 -124 -123 -63 -37 -144 -60 -182
-50 -35 9 -45 48 -28 112 20 78 -11 119 -59 76 -15 -15 -25 -15 -75 -5 -139
28 -215 7 -311 -85 -96 -93 -226 -154 -325 -154 -53 0 -97 43 -97 95 0 52 35
114 73 130 38 16 57 5 57 -31 0 -29 10 -30 44 -3 31 24 33 49 7 73 -65 59
-179 25 -228 -68 -21 -41 -19 -118 4 -158 10 -18 38 -46 62 -63 39 -27 50 -30
119 -30 87 0 154 20 226 65 l47 30 37 -29 c72 -56 118 -51 250 30 l84 52 40
-42 c75 -76 122 -77 284 -1 l82 38 6 -39 c7 -42 34 -64 66 -54 10 3 59 49 108
101 50 51 92 94 95 94 3 0 15 -30 27 -67 25 -75 44 -103 71 -103 9 0 54 27 99
61 l82 61 29 -34 c15 -18 28 -36 29 -40 0 -4 20 -19 43 -33 51 -29 102 -32
189 -9 33 8 67 13 74 10 11 -4 14 -52 14 -254 0 -399 9 -467 57 -436 12 7 15
60 17 294 3 298 9 347 42 342 172 -23 281 -7 403 59 57 31 76 37 83 27 5 -7
18 -27 29 -45 12 -19 42 -43 73 -58 45 -22 68 -26 138 -27 99 -1 163 23 244
88 l52 42 5 -46 c8 -74 70 -107 83 -43 22 110 85 191 189 242 53 26 66 29 85
19 42 -22 68 11 34 44 -36 37 -141 13 -238 -53 -54 -37 -66 -39 -66 -6 0 33
-33 51 -54 29 -9 -8 -16 -20 -16 -26 0 -30 -39 -84 -94 -127 -93 -74 -159
-103 -241 -109 -61 -3 -74 -1 -104 20 -19 12 -36 28 -38 35 -2 6 17 24 44 39
108 61 129 109 74 165 -52 52 -95 38 -191 -63 -40 -41 -219 -148 -249 -148 -6
0 -1 19 9 43 28 60 26 122 -4 152 -13 13 -37 27 -52 31 -43 11 -134 -12 -182
-46 -24 -17 -47 -28 -51 -26 -4 3 -6 50 -3 106 3 71 1 104 -8 115 -13 16 -46
20 -53 8z m294 -224 c24 -24 20 -56 -14 -106 -26 -38 -55 -53 -105 -53 -84 0
-99 18 -60 73 31 43 56 65 103 87 50 24 51 24 76 -1z m446 0 c2 -14 -41 -53
-71 -65 -25 -10 -19 12 15 51 32 36 52 41 56 14z m-2199 -51 c3 -22 -4 -32
-39 -54 -23 -14 -62 -33 -86 -41 -50 -17 -73 -7 -73 34 0 20 12 30 73 59 85
41 121 42 125 2z"/>
</g>
</svg>
