<svg aria-hidden="true" style="position: absolute; width: 0; height: 0; overflow: hidden;" version="1.1" xmlns="http://www.w3.org/2000/svg" xmlns:xlink="http://www.w3.org/1999/xlink">
<defs>

<symbol id="icon-close" viewBox="0 0 32 32">
<path stroke-linejoin="round" stroke-linecap="round" stroke-miterlimit="4" stroke-width="3" d="M24 8l-16 16"></path>
<path stroke-linejoin="round" stroke-linecap="round" stroke-miterlimit="4" stroke-width="3" d="M8 8l16 16"></path>
</symbol>
<symbol id="icon-star" viewBox="0 0 32 32">
<path stroke-linejoin="miter" stroke-linecap="butt" stroke-miterlimit="4" stroke-width="2.56" d="M13.227 10.020l3.84-7.277 3.84 7.277c0.34 0.644 0.959 1.093 1.675 1.217l8.108 1.403-5.735 5.9c-0.507 0.522-0.744 1.249-0.64 1.97l1.171 8.144-7.384-3.631c-0.653-0.321-1.418-0.321-2.071 0l-7.384 3.631 1.171-8.144c0.104-0.72-0.133-1.448-0.64-1.97l-5.735-5.9 8.108-1.403c0.717-0.124 1.336-0.574 1.675-1.217z"></path>
</symbol>

<symbol id="icon-microwave" viewBox="0 0 32 32">
<path stroke-linejoin="round" stroke-linecap="round" stroke-miterlimit="4" stroke-width="2.24" d="M29.714 5.714h-27.429c-0.303 0-0.594 0.12-0.808 0.335s-0.335 0.505-0.335 0.808v18.286c0 0.303 0.12 0.594 0.335 0.808s0.505 0.335 0.808 0.335h27.429c0.303 0 0.594-0.12 0.808-0.335s0.335-0.505 0.335-0.808v-18.286c0-0.303-0.12-0.594-0.335-0.808s-0.505-0.335-0.808-0.335z"></path>
<path stroke-linejoin="round" stroke-linecap="round" stroke-miterlimit="4" stroke-width="2.24" d="M25.143 11.428h1.143M25.143 16h1.143M19.428 10.286h-12.571c-0.303 0-0.594 0.12-0.808 0.335s-0.335 0.505-0.335 0.808v9.143c0 0.303 0.12 0.594 0.335 0.808s0.505 0.335 0.808 0.335h12.571c0.303 0 0.594-0.12 0.808-0.335s0.335-0.505 0.335-0.808v-9.143c0-0.303-0.12-0.594-0.335-0.808s-0.505-0.335-0.808-0.335z"></path>
</symbol>

<symbol id="icon-water" viewBox="0 0 32 32">
<path stroke-linejoin="miter" stroke-linecap="butt" stroke-miterlimit="10" stroke-width="2.4" d="M25 20c0 5.523-3.477 9-9 9s-9-3.477-9-9c0-5.927 6.452-13.928 8.431-16.242 0.070-0.082 0.158-0.148 0.256-0.194s0.205-0.069 0.314-0.069c0.108 0 0.215 0.023 0.314 0.069s0.186 0.111 0.256 0.194c1.978 2.314 8.43 10.316 8.43 16.242z"></path>
<path stroke-linejoin="round" stroke-linecap="round" stroke-miterlimit="4" stroke-width="2.4" d="M21.5 20.5c0 1.193-0.474 2.338-1.318 3.182s-1.988 1.318-3.182 1.318"></path>
</symbol>
<symbol id="icon-gas" viewBox="0 0 32 32">
<path d="M25.072 13.991c-0.368-0.453-0.816-0.846-1.232-1.239-1.072-0.907-2.288-1.556-3.311-2.508-2.384-2.206-2.912-5.848-1.392-8.644-1.52 0.348-2.848 1.133-3.983 1.995-4.143 3.143-5.775 8.689-3.823 13.449 0.064 0.151 0.128 0.302 0.128 0.499 0 0.332-0.24 0.635-0.56 0.756-0.368 0.151-0.752 0.060-1.056-0.181-0.091-0.071-0.167-0.159-0.224-0.257-1.808-2.161-2.096-5.259-0.88-7.737-2.672 2.055-4.127 5.531-3.919 8.81 0.096 0.756 0.192 1.511 0.464 2.267 0.224 0.907 0.656 1.813 1.136 2.614 1.728 2.614 4.719 4.488 7.935 4.866 3.423 0.408 7.087-0.181 9.71-2.418 2.927-2.508 3.951-6.528 2.448-9.974l-0.208-0.393c-0.336-0.695-1.232-1.904-1.232-1.904zM20.017 23.512c-0.448 0.363-1.184 0.756-1.76 0.907-1.792 0.604-3.583-0.242-4.639-1.239 1.904-0.423 3.039-1.753 3.375-3.098 0.272-1.209-0.24-2.206-0.448-3.37-0.192-1.118-0.16-2.070 0.272-3.113 0.304 0.574 0.624 1.148 1.008 1.602 1.232 1.511 3.167 2.176 3.583 4.231 0.064 0.212 0.096 0.423 0.096 0.65 0.048 1.239-0.528 2.599-1.488 3.43z"></path>
</symbol>

<symbol id="icon-freezer" viewBox="0 0 32 32">
<path stroke-linejoin="round" stroke-linecap="round" stroke-miterlimit="4" stroke-width="2.0800" d="M23.4 3h-14.793c-1.105 0-2 0.895-2 2v20.387c0 1.104 0.895 2 2 2h14.793c1.104 0 2-0.896 2-2v-20.387c0-1.105-0.896-2-2-2z"></path>
<path stroke-linejoin="round" stroke-linecap="round" stroke-miterlimit="4" stroke-width="2.0800" d="M6.607 13.127h18.787M10.313 10.567v-4.040M10.313 19.44v-4.040M8.427 27.387v0.7c0 0.241 0.095 0.472 0.265 0.643s0.4 0.268 0.642 0.27h1.647c0.242 0 0.475-0.096 0.646-0.268s0.268-0.404 0.268-0.646v-0.7M20.1 27.387v0.7c0 0.242 0.096 0.474 0.268 0.646s0.404 0.268 0.646 0.268h1.653c0.242 0 0.474-0.096 0.646-0.268s0.268-0.404 0.268-0.646v-0.7"></path>
</symbol>
<symbol id="icon-toilet" viewBox="0 0 32 32">
<path d="M24 4c1.939 0 3.269 1.647 4.040 3.313 0.761 1.653 1.224 3.811 1.287 6.145l0.007 0.541v12.667c0 0.18-0.036 0.357-0.106 0.523s-0.173 0.315-0.303 0.439c-0.13 0.125-0.283 0.222-0.451 0.285s-0.347 0.093-0.527 0.086l-0.165-0.019-3.781-0.629-3.781 0.629c-0.16 0.027-0.324 0.024-0.483-0.008l-0.157-0.041-3.579-1.193-3.579 1.193c-0.188 0.063-0.387 0.083-0.583 0.059s-0.385-0.092-0.552-0.197-0.309-0.248-0.414-0.415c-0.105-0.167-0.172-0.356-0.196-0.553l-0.009-0.159v-3.903c-0.708 0.733-1.595 1.236-2.667 1.236-1.939 0-3.269-1.647-4.040-3.313-0.819-1.78-1.293-4.145-1.293-6.687s0.473-4.907 1.293-6.687c0.735-1.592 1.981-3.164 3.78-3.303l0.26-0.011h16zM24 6.667h-12.291c0.12 0.213 0.229 0.429 0.329 0.647 0.821 1.78 1.295 4.145 1.295 6.687v10.817l2.245-0.749c0.274-0.091 0.569-0.091 0.843 0l3.687 1.229 3.673-0.613c0.144-0.024 0.293-0.024 0.437 0l2.448 0.409v-11.093c0-2.245-0.423-4.213-1.049-5.569-0.677-1.471-1.347-1.764-1.617-1.764zM8 6.667c-0.271 0-0.94 0.293-1.617 1.764-0.627 1.356-1.049 3.324-1.049 5.569s0.423 4.213 1.049 5.569c0.677 1.471 1.347 1.764 1.617 1.764s0.94-0.293 1.617-1.764c0.627-1.356 1.049-3.324 1.049-5.569s-0.423-4.213-1.049-5.569c-0.677-1.471-1.347-1.764-1.617-1.764zM8 11.333c0.736 0 1.333 1.193 1.333 2.667s-0.597 2.667-1.333 2.667c-0.736 0-1.333-1.193-1.333-2.667s0.597-2.667 1.333-2.667z"></path>
</symbol>

<symbol id="icon-hob" viewBox="0 0 32 32">
<path stroke-linejoin="miter" stroke-linecap="butt" stroke-miterlimit="4" stroke-width="2.4" d="M12 6.667h16c0.354 0 0.693 0.14 0.943 0.391s0.391 0.589 0.391 0.943v17.333c0 0.354-0.14 0.693-0.391 0.943s-0.589 0.391-0.943 0.391h-16M12 6.667h-8c-0.354 0-0.693 0.14-0.943 0.391s-0.39 0.589-0.39 0.943v17.333c0 0.354 0.14 0.693 0.39 0.943s0.589 0.391 0.943 0.391h8M12 6.667v20"></path>
<path stroke-linejoin="round" stroke-linecap="round" stroke-miterlimit="4" stroke-width="2.4" d="M7.333 11.333v2.667M24.667 10.667l-8 11.333"></path>
<path d="M8.667 18c0-0.736-0.597-1.333-1.333-1.333s-1.333 0.597-1.333 1.333c0 0.736 0.597 1.333 1.333 1.333s1.333-0.597 1.333-1.333z"></path>
<path d="M8.667 22c0-0.736-0.597-1.333-1.333-1.333s-1.333 0.597-1.333 1.333c0 0.736 0.597 1.333 1.333 1.333s1.333-0.597 1.333-1.333z"></path>
</symbol>

<symbol id="icon-radio" viewBox="0 0 32 32">
<path stroke-linejoin="miter" stroke-linecap="butt" stroke-miterlimit="4" stroke-width="2.0800" d="M2.667 18.667c0-5.028 0-7.543 1.563-9.104 1.561-1.563 4.076-1.563 9.104-1.563h5.333c5.028 0 7.543 0 9.104 1.563 1.563 1.561 1.563 4.076 1.563 9.104s0 7.543-1.563 9.104c-1.561 1.563-4.076 1.563-9.104 1.563h-5.333c-5.028 0-7.543 0-9.104-1.563-1.563-1.561-1.563-4.076-1.563-9.104z"></path>
<path stroke-linejoin="miter" stroke-linecap="butt" stroke-miterlimit="4" stroke-width="2.0800" d="M6.667 14.667c0-0.707 0.281-1.386 0.781-1.886s1.178-0.781 1.886-0.781h13.333c0.707 0 1.386 0.281 1.886 0.781s0.781 1.178 0.781 1.886-0.281 1.386-0.781 1.886c-0.5 0.5-1.178 0.781-1.886 0.781h-13.333c-0.707 0-1.386-0.281-1.886-0.781s-0.781-1.178-0.781-1.886zM12 22.667c0 0.53-0.211 1.039-0.586 1.414s-0.884 0.586-1.414 0.586-1.039-0.211-1.414-0.586c-0.375-0.375-0.586-0.884-0.586-1.414s0.211-1.039 0.586-1.414 0.884-0.586 1.414-0.586c0.53 0 1.039 0.211 1.414 0.586s0.586 0.884 0.586 1.414z"></path>
<path stroke-linejoin="miter" stroke-linecap="round" stroke-miterlimit="4" stroke-width="2.0800" d="M20 15.333v2M17.333 22.667h6.667M8.667 8l11.333-5.333"></path>
</symbol>

<symbol id="icon-cd" viewBox="0 0 32 32">
<path stroke-linejoin="miter" stroke-linecap="butt" stroke-miterlimit="4" stroke-width="2.4" d="M16 28c6.627 0 12-5.373 12-12s-5.373-12-12-12c-6.627 0-12 5.373-12 12s5.373 12 12 12z"></path>
<path stroke-linejoin="miter" stroke-linecap="round" stroke-miterlimit="4" stroke-width="2.4" d="M8.667 16c0-4.050 3.283-7.333 7.333-7.333"></path>
<path stroke-linejoin="miter" stroke-linecap="butt" stroke-miterlimit="4" stroke-width="2.4" d="M16 19.333c1.841 0 3.333-1.492 3.333-3.333s-1.492-3.333-3.333-3.333c-1.841 0-3.333 1.492-3.333 3.333s1.492 3.333 3.333 3.333z"></path>
</symbol>

<symbol id="icon-air-conditioner" viewBox="0 0 32 32">
<path stroke-linejoin="round" stroke-linecap="round" stroke-miterlimit="4" stroke-width="2.4" d="M28.571 1.143h-25.143c-0.606 0-1.188 0.241-1.616 0.669s-0.669 1.010-0.669 1.616v11.429c0 0.606 0.241 1.188 0.669 1.616s1.010 0.669 1.616 0.669h25.143c0.606 0 1.188-0.241 1.616-0.669s0.67-1.010 0.67-1.616v-11.429c0-0.606-0.241-1.188-0.67-1.616s-1.010-0.669-1.616-0.669z"></path>
<path stroke-linejoin="round" stroke-linecap="round" stroke-miterlimit="4" stroke-width="2.4" d="M25.143 17.143v-4.571c0-0.606-0.241-1.188-0.67-1.616s-1.010-0.669-1.616-0.669h-13.714c-0.606 0-1.188 0.241-1.616 0.669s-0.669 1.010-0.669 1.616v4.571M5.714 28.572h0.229c0.849 0 1.663-0.337 2.263-0.937s0.937-1.414 0.937-2.263v-2.514M26.286 28.572h-0.229c-0.849 0-1.663-0.337-2.263-0.937s-0.937-1.414-0.937-2.263v-2.514M16 30.857v-8"></path>
</symbol>

<symbol id="icon-location" viewBox="0 0 32 32">
<path stroke-linejoin="round" stroke-linecap="round" stroke-miterlimit="4" stroke-width="2.6" d="M28 13.333c0 9.333-12 17.333-12 17.333s-12-8-12-17.333c0-3.183 1.264-6.235 3.515-8.485s5.303-3.515 8.485-3.515c3.183 0 6.235 1.264 8.485 3.515s3.515 5.303 3.515 8.485z"></path>
<path stroke-linejoin="round" stroke-linecap="round" stroke-miterlimit="4" stroke-width="2.6" d="M16 17.333c2.209 0 4-1.791 4-4s-1.791-4-4-4c-2.209 0-4 1.791-4 4s1.791 4 4 4z"></path>
</symbol>

<symbol id="icon-like" viewBox="0 0 34 32">
<path d="M31.425 4.223c-1.767-1.885-4.191-2.923-6.827-2.923-1.97 0-3.775 0.613-5.363 1.821-0.802 0.61-1.528 1.356-2.168 2.227-0.64-0.871-1.367-1.617-2.168-2.227-1.588-1.208-3.393-1.821-5.363-1.821-2.636 0-5.061 1.038-6.828 2.923-1.746 1.863-2.708 4.408-2.708 7.166 0 2.839 1.076 5.438 3.385 8.179 2.066 2.452 5.036 4.941 8.474 7.823 1.174 0.984 2.505 2.1 3.887 3.288 0.365 0.314 0.834 0.488 1.32 0.488s0.954-0.173 1.319-0.487c1.382-1.189 2.714-2.305 3.888-3.29 3.439-2.882 6.408-5.37 8.474-7.822 2.31-2.741 3.385-5.34 3.385-8.179 0-2.758-0.962-5.303-2.708-7.166z"></path>
</symbol>

<symbol id="icon-van" viewBox="0 0 46 32">
<path d="M2.606 1.794h12.4c0.114 0 0.206-0.046 0.286-0.114l1.189-1.166c0.343-0.331 0.811-0.514 1.303-0.514h18.811c0.88 0 1.691 0.423 2.171 1.131l2.263 3.303c0.32 0.469 0.343 1.063 0.080 1.566-0.274 0.491-0.8 0.8-1.383 0.8h-9.691v0.96h4.96c1.314 0 2.503 0.754 3.017 1.943l2.914 6.651 2.549 0.994c1.36 0.526 2.24 1.794 2.24 3.223v6.16c0 0.914-0.777 1.669-1.714 1.669h-2.96c-0.343 2.034-2.171 3.6-4.354 3.6s-4-1.566-4.354-3.6h-16.194c-0.354 2.034-2.171 3.6-4.354 3.6s-4-1.566-4.354-3.6h-5.92c-0.834 0-1.509-0.674-1.509-1.486v-22.571c0-1.406 1.166-2.549 2.606-2.549zM36.686 30.583c1.634 0 2.971-1.291 2.971-2.891s-1.337-2.891-2.971-2.891c-1.634 0-2.971 1.291-2.971 2.891s1.337 2.891 2.971 2.891zM30.034 26.994h2.297c0.011-0.046 0.023-0.080 0.023-0.114 0.011-0.023 0.011-0.046 0.011-0.069 0.011-0.057 0.034-0.103 0.046-0.16 0-0.011 0-0.023 0-0.034 0.023-0.069 0.046-0.137 0.057-0.194 0.011-0.023 0.023-0.034 0.023-0.057 0.011-0.046 0.034-0.091 0.046-0.137 0.011-0.023 0.023-0.046 0.034-0.069 0.011-0.034 0.023-0.080 0.046-0.114 0.011-0.023 0.023-0.057 0.034-0.080 0.011-0.034 0.023-0.069 0.046-0.103 0.011-0.023 0.023-0.057 0.034-0.080 0.023-0.034 0.034-0.069 0.057-0.103 0.011-0.023 0.023-0.046 0.046-0.069 0.011-0.034 0.034-0.069 0.057-0.103 0.011-0.023 0.023-0.046 0.046-0.069 0.023-0.034 0.034-0.069 0.057-0.103 0.023-0.023 0.034-0.046 0.046-0.069 0.023-0.034 0.057-0.069 0.080-0.103 0.011-0.023 0.023-0.034 0.046-0.057 0.034-0.046 0.069-0.091 0.103-0.137 0.011 0 0.011-0.011 0.023-0.011 0.034-0.057 0.080-0.103 0.126-0.149 0.011-0.023 0.034-0.034 0.046-0.046 0.034-0.034 0.057-0.069 0.091-0.103 0.023-0.011 0.046-0.034 0.057-0.057 0.034-0.023 0.057-0.046 0.091-0.080 0.023-0.011 0.046-0.034 0.057-0.057 0.034-0.023 0.069-0.046 0.091-0.069l0.069-0.057c0.034-0.023 0.057-0.046 0.091-0.069 0.023-0.023 0.046-0.034 0.069-0.046 0.034-0.023 0.069-0.046 0.103-0.069 0.023-0.023 0.046-0.034 0.069-0.046 0.034-0.023 0.069-0.046 0.103-0.069 0.023-0.011 0.046-0.034 0.069-0.046 0.034-0.023 0.080-0.046 0.114-0.057 0.023-0.011 0.034-0.023 0.057-0.034 0.057-0.034 0.114-0.057 0.171-0.091 0 0 0.011 0 0.011 0 0.057-0.034 0.126-0.057 0.183-0.080 0.023-0.011 0.046-0.023 0.069-0.034 0.034-0.011 0.080-0.023 0.126-0.046 0.023-0.011 0.046-0.011 0.080-0.023s0.069-0.034 0.114-0.046c0.023 0 0.057-0.011 0.080-0.023 0.046-0.011 0.080-0.023 0.114-0.034 0.034 0 0.057-0.011 0.091-0.011 0.034-0.011 0.080-0.023 0.114-0.034 0.034 0 0.057-0.011 0.091-0.011 0.034-0.011 0.080-0.023 0.126-0.023 0.023-0.011 0.057-0.011 0.080-0.011 0.046-0.011 0.091-0.011 0.126-0.023 0.034 0 0.057 0 0.091-0.011 0.046 0 0.091 0 0.137-0.011 0.023 0 0.046 0 0.069 0 0.069 0 0.149 0 0.217 0s0.149 0 0.217 0c0.023 0 0.046 0 0.069 0 0.046 0.011 0.103 0.011 0.149 0.011 0.023 0.011 0.057 0.011 0.080 0.011 0.046 0.011 0.080 0.011 0.126 0.023 0.034 0 0.057 0 0.091 0.011 0.034 0 0.080 0.011 0.114 0.023 0.034 0 0.057 0.011 0.091 0.011 0.034 0.011 0.080 0.023 0.114 0.034 0.034 0 0.057 0.011 0.091 0.011 0.034 0.011 0.080 0.023 0.114 0.034 0.023 0.011 0.057 0.023 0.080 0.023 0.046 0.011 0.080 0.034 0.126 0.046 0.023 0.011 0.046 0.011 0.069 0.023 0.046 0.023 0.091 0.034 0.137 0.046 0.011 0.011 0.034 0.023 0.057 0.034 0.057 0.023 0.126 0.046 0.183 0.080 0.011 0 0.011 0 0.011 0 0.057 0.034 0.114 0.057 0.171 0.091 0.023 0.011 0.034 0.023 0.057 0.034 0.046 0.011 0.080 0.034 0.114 0.057 0.023 0.011 0.046 0.034 0.069 0.046 0.034 0.023 0.069 0.046 0.103 0.069 0.023 0.011 0.057 0.023 0.080 0.046s0.057 0.046 0.091 0.069c0.023 0.011 0.046 0.023 0.069 0.046 0.034 0.023 0.057 0.046 0.091 0.069l0.069 0.057c0.034 0.023 0.057 0.046 0.091 0.069 0.023 0.023 0.034 0.046 0.057 0.057 0.034 0.034 0.057 0.057 0.091 0.080 0.023 0.023 0.034 0.046 0.057 0.057 0.034 0.034 0.069 0.069 0.091 0.103 0.023 0.011 0.034 0.023 0.046 0.046 0.046 0.046 0.091 0.091 0.137 0.149 0 0 0.011 0.011 0.011 0.011 0.034 0.046 0.069 0.091 0.114 0.137 0.011 0.023 0.023 0.034 0.034 0.057 0.023 0.034 0.057 0.069 0.080 0.103 0.011 0.023 0.023 0.046 0.046 0.069 0.023 0.034 0.046 0.069 0.069 0.103 0.011 0.023 0.023 0.046 0.034 0.069 0.023 0.034 0.046 0.069 0.069 0.103 0.011 0.023 0.023 0.046 0.034 0.069 0.023 0.034 0.034 0.069 0.057 0.103 0.011 0.023 0.023 0.057 0.034 0.080 0.023 0.034 0.034 0.069 0.057 0.103 0.011 0.023 0.023 0.057 0.023 0.080 0.023 0.034 0.034 0.080 0.057 0.114 0 0.023 0.011 0.046 0.023 0.069 0.011 0.046 0.034 0.091 0.046 0.137 0.011 0.023 0.011 0.034 0.023 0.057 0.023 0.057 0.034 0.126 0.057 0.194 0 0.011 0 0.023 0 0.034 0.023 0.057 0.034 0.103 0.046 0.16 0 0.023 0.011 0.046 0.011 0.069 0.011 0.034 0.011 0.069 0.023 0.114h2.96c0.149 0 0.263-0.126 0.263-0.263v-2.949h-1.12v-1.406h1.12v-1.806c0-0.857-0.514-1.611-1.326-1.92l-2.697-1.051h-10.206v9.394zM30.034 16.194h9.246l-2.594-5.943c-0.286-0.663-0.949-1.086-1.691-1.086h-4.96v7.029zM11.783 30.583c1.634 0 2.971-1.291 2.971-2.891s-1.337-2.891-2.971-2.891c-0.046 0-0.103 0-0.149 0-1.371 0.069-2.491 1.040-2.754 2.309-0.011 0.046-0.023 0.091-0.034 0.149-0.011 0.091-0.023 0.183-0.023 0.286-0.011 0.046-0.011 0.103-0.011 0.149 0 1.6 1.337 2.891 2.971 2.891zM1.44 22.377h1.12v1.406h-1.12v3.131c0 0.046 0.034 0.080 0.069 0.080h5.92c0.011-0.046 0.011-0.080 0.023-0.114 0-0.023 0.011-0.046 0.011-0.069 0.011-0.057 0.023-0.103 0.046-0.16 0-0.011 0-0.023 0-0.034 0.023-0.069 0.046-0.126 0.057-0.194 0.011-0.023 0.023-0.046 0.023-0.057 0.011-0.046 0.034-0.091 0.046-0.137 0.011-0.023 0.023-0.046 0.034-0.069 0.011-0.034 0.023-0.080 0.046-0.114 0.011-0.023 0.023-0.057 0.034-0.080 0.011-0.034 0.023-0.069 0.046-0.103 0.011-0.023 0.023-0.057 0.034-0.080 0.023-0.034 0.034-0.069 0.057-0.103 0.011-0.023 0.023-0.046 0.046-0.069 0.011-0.034 0.034-0.069 0.057-0.103 0.011-0.023 0.023-0.046 0.046-0.069 0.011-0.034 0.034-0.069 0.057-0.103 0.023-0.023 0.034-0.046 0.046-0.069 0.023-0.034 0.057-0.069 0.080-0.103 0.011-0.023 0.023-0.034 0.046-0.057 0.034-0.046 0.069-0.091 0.103-0.126 0-0.011 0.011-0.023 0.011-0.023 0.046-0.057 0.091-0.103 0.137-0.149 0.011-0.023 0.034-0.034 0.046-0.046 0.034-0.034 0.057-0.069 0.091-0.103 0.023-0.011 0.034-0.034 0.057-0.057 0.034-0.023 0.057-0.046 0.091-0.080 0.023-0.011 0.046-0.034 0.057-0.057 0.034-0.023 0.069-0.046 0.091-0.069s0.046-0.034 0.069-0.057c0.034-0.023 0.057-0.046 0.091-0.069 0.023-0.023 0.046-0.034 0.069-0.046 0.034-0.023 0.069-0.046 0.103-0.069 0.023-0.023 0.046-0.034 0.069-0.046 0.034-0.023 0.069-0.046 0.103-0.069 0.023-0.011 0.046-0.034 0.069-0.046 0.034-0.023 0.069-0.046 0.114-0.057 0.023-0.011 0.034-0.023 0.057-0.034 0.057-0.034 0.114-0.057 0.171-0.091 0 0 0.011 0 0.011 0 0.057-0.034 0.126-0.057 0.183-0.080 0.023-0.011 0.046-0.023 0.069-0.034 0.034-0.011 0.080-0.023 0.126-0.046 0.023-0.011 0.046-0.011 0.080-0.023s0.069-0.034 0.114-0.046c0.023 0 0.057-0.011 0.080-0.023 0.046-0.011 0.080-0.023 0.114-0.034 0.034 0 0.057-0.011 0.091-0.011 0.034-0.011 0.080-0.023 0.114-0.034 0.034 0 0.057-0.011 0.091-0.011 0.034-0.011 0.080-0.023 0.114-0.023 0.034-0.011 0.057-0.011 0.091-0.011 0.046-0.011 0.080-0.011 0.126-0.023 0.034 0 0.057 0 0.080-0.011 0.057 0 0.103 0 0.149-0.011 0.023 0 0.046 0 0.069 0 0.069 0 0.149 0 0.217 0s0.149 0 0.217 0c0.023 0 0.046 0 0.069 0 0.046 0.011 0.091 0.011 0.149 0.011 0.023 0.011 0.046 0.011 0.080 0.011 0.046 0.011 0.080 0.011 0.126 0.023 0.034 0 0.057 0 0.091 0.011 0.034 0 0.080 0.011 0.114 0.023 0.034 0 0.057 0.011 0.091 0.011 0.034 0.011 0.080 0.023 0.114 0.034 0.034 0 0.057 0.011 0.091 0.011 0.034 0.011 0.080 0.023 0.114 0.034 0.023 0.011 0.057 0.023 0.080 0.023 0.046 0.011 0.080 0.034 0.126 0.046 0.023 0.011 0.046 0.011 0.069 0.023 0.046 0.023 0.091 0.034 0.137 0.046 0.011 0.011 0.034 0.023 0.057 0.034 0.057 0.023 0.126 0.046 0.183 0.080 0.011 0 0.011 0 0.011 0 0.057 0.034 0.114 0.057 0.171 0.091 0.023 0.011 0.034 0.023 0.057 0.034 0.046 0.011 0.080 0.034 0.114 0.057 0.023 0.011 0.046 0.034 0.069 0.046 0.034 0.023 0.069 0.046 0.103 0.069 0.023 0.011 0.046 0.023 0.080 0.046 0.023 0.023 0.057 0.046 0.091 0.069 0.023 0.011 0.046 0.023 0.069 0.046 0.034 0.023 0.057 0.046 0.091 0.069 0.023 0.023 0.046 0.034 0.069 0.057s0.057 0.046 0.091 0.069c0.011 0.023 0.034 0.046 0.057 0.057 0.034 0.034 0.057 0.057 0.091 0.080 0.023 0.023 0.034 0.046 0.057 0.057 0.034 0.034 0.069 0.069 0.091 0.103 0.023 0.011 0.034 0.023 0.046 0.046 0.046 0.046 0.091 0.091 0.137 0.149 0 0 0.011 0.011 0.011 0.011 0.034 0.046 0.069 0.091 0.103 0.137 0.023 0.023 0.034 0.034 0.046 0.057 0.023 0.034 0.057 0.069 0.080 0.103 0.011 0.023 0.023 0.046 0.046 0.069 0.023 0.034 0.046 0.069 0.057 0.103 0.023 0.023 0.034 0.046 0.046 0.069 0.023 0.034 0.046 0.069 0.057 0.103 0.023 0.023 0.034 0.046 0.046 0.069 0.023 0.034 0.034 0.069 0.057 0.103 0.011 0.023 0.023 0.057 0.034 0.080 0.023 0.034 0.034 0.069 0.046 0.103 0.011 0.023 0.023 0.057 0.034 0.080 0.023 0.034 0.034 0.080 0.057 0.114 0 0.023 0.011 0.046 0.023 0.069 0.011 0.046 0.034 0.091 0.046 0.137 0.011 0.023 0.011 0.034 0.023 0.057 0.011 0.057 0.034 0.126 0.057 0.194 0 0.011 0 0.023 0 0.034 0.023 0.046 0.034 0.103 0.046 0.16 0 0.023 0.011 0.046 0.011 0.069 0.011 0.034 0.011 0.069 0.023 0.114h12.446v-20.903c0-0.389 0.331-0.697 0.72-0.697h10.423c0.023 0 0.069 0 0.103-0.069 0.034-0.057 0.011-0.103 0-0.114l-2.251-3.303c-0.229-0.32-0.583-0.503-0.983-0.503h-18.811c-0.114 0-0.206 0.034-0.286 0.103l-1.189 1.166c-0.343 0.343-0.811 0.526-1.303 0.526h-12.4c-0.651 0-1.166 0.514-1.166 1.143v18.034z"></path>
<path d="M5.531 7.189h8.811c1.017 0 1.851 0.811 1.851 1.806v4.103c0 0.994-0.834 1.806-1.851 1.806h-8.811c-1.017 0-1.851-0.811-1.851-1.806v-4.103c0-0.994 0.834-1.806 1.851-1.806zM5.12 13.097c0 0.217 0.183 0.389 0.411 0.389h8.811c0.229 0 0.411-0.171 0.411-0.389v-4.103c0-0.217-0.183-0.4-0.411-0.4h-8.811c-0.229 0-0.411 0.183-0.411 0.4v4.103z"></path>
</symbol>

<symbol id="icon-fully-integrated" viewBox="0 0 46 32">
<path d="M2.606 1.223h12.4c0.114 0 0.206-0.046 0.286-0.114l1.189-1.166c0.343-0.331 0.811-0.514 1.303-0.514h18.811c0.88 0 1.691 0.423 2.171 1.131l2.263 3.303c0.32 0.469 0.343 1.063 0.080 1.566-0.274 0.491-0.8 0.8-1.383 0.8h-9.691v0.96h4.96c1.314 0 2.503 0.754 3.017 1.943l2.914 6.651 2.549 0.994c1.36 0.526 2.24 1.794 2.24 3.223v6.16c0 0.914-0.777 1.669-1.714 1.669h-2.96c-0.343 2.034-2.171 3.6-4.354 3.6s-4-1.566-4.354-3.6h-16.194c-0.354 2.034-2.171 3.6-4.354 3.6s-4-1.566-4.354-3.6h-5.92c-0.834 0-1.509-0.674-1.509-1.486v-22.571c0-1.406 1.166-2.549 2.606-2.549zM36.686 30.011c1.634 0 2.971-1.291 2.971-2.891s-1.337-2.891-2.971-2.891c-1.634 0-2.971 1.291-2.971 2.891s1.337 2.891 2.971 2.891zM30.034 26.423h2.297c0.011-0.046 0.023-0.080 0.023-0.114 0.011-0.023 0.011-0.046 0.011-0.069 0.011-0.057 0.034-0.103 0.046-0.16 0-0.011 0-0.023 0-0.034 0.023-0.069 0.046-0.137 0.057-0.194 0.011-0.023 0.023-0.034 0.023-0.057 0.011-0.046 0.034-0.091 0.046-0.137 0.011-0.023 0.023-0.046 0.034-0.069 0.011-0.034 0.023-0.080 0.046-0.114 0.011-0.023 0.023-0.057 0.034-0.080 0.011-0.034 0.023-0.069 0.046-0.103 0.011-0.023 0.023-0.057 0.034-0.080 0.023-0.034 0.034-0.069 0.057-0.103 0.011-0.023 0.023-0.046 0.046-0.069 0.011-0.034 0.034-0.069 0.057-0.103 0.011-0.023 0.023-0.046 0.046-0.069 0.023-0.034 0.034-0.069 0.057-0.103 0.023-0.023 0.034-0.046 0.046-0.069 0.023-0.034 0.057-0.069 0.080-0.103 0.011-0.023 0.023-0.034 0.046-0.057 0.034-0.046 0.069-0.091 0.103-0.137 0.011 0 0.011-0.011 0.023-0.011 0.034-0.057 0.080-0.103 0.126-0.149 0.011-0.023 0.034-0.034 0.046-0.046 0.034-0.034 0.057-0.069 0.091-0.103 0.023-0.011 0.046-0.034 0.057-0.057 0.034-0.023 0.057-0.046 0.091-0.080 0.023-0.011 0.046-0.034 0.057-0.057 0.034-0.023 0.069-0.046 0.091-0.069l0.069-0.057c0.034-0.023 0.057-0.046 0.091-0.069 0.023-0.023 0.046-0.034 0.069-0.046 0.034-0.023 0.069-0.046 0.103-0.069 0.023-0.023 0.046-0.034 0.069-0.046 0.034-0.023 0.069-0.046 0.103-0.069 0.023-0.011 0.046-0.034 0.069-0.046 0.034-0.023 0.080-0.046 0.114-0.057 0.023-0.011 0.034-0.023 0.057-0.034 0.057-0.034 0.114-0.057 0.171-0.091 0 0 0.011 0 0.011 0 0.057-0.034 0.126-0.057 0.183-0.080 0.023-0.011 0.046-0.023 0.069-0.034 0.034-0.011 0.080-0.034 0.126-0.046 0.023-0.011 0.046-0.011 0.080-0.023s0.069-0.034 0.114-0.046c0.023 0 0.057-0.011 0.080-0.023 0.046-0.011 0.080-0.023 0.114-0.034 0.034 0 0.057-0.011 0.091-0.011 0.034-0.011 0.080-0.023 0.114-0.034 0.034 0 0.057-0.011 0.091-0.011 0.034-0.011 0.080-0.023 0.126-0.023 0.023-0.011 0.057-0.011 0.080-0.011 0.046-0.011 0.091-0.011 0.126-0.023 0.034 0 0.057 0 0.091-0.011 0.046 0 0.091 0 0.137-0.011 0.023 0 0.046 0 0.069 0 0.069 0 0.149 0 0.217 0s0.149 0 0.217 0c0.023 0 0.046 0 0.069 0 0.046 0.011 0.103 0.011 0.149 0.011 0.023 0.011 0.057 0.011 0.080 0.011 0.046 0.011 0.080 0.011 0.126 0.023 0.034 0 0.057 0 0.091 0.011 0.034 0 0.080 0.011 0.114 0.023 0.034 0 0.057 0.011 0.091 0.011 0.034 0.011 0.080 0.023 0.114 0.034 0.034 0 0.057 0.011 0.091 0.011 0.034 0.011 0.080 0.023 0.114 0.034 0.023 0.011 0.057 0.023 0.080 0.023 0.046 0.011 0.080 0.034 0.126 0.046 0.023 0.011 0.046 0.011 0.069 0.023 0.046 0.011 0.091 0.034 0.137 0.046 0.011 0.011 0.034 0.023 0.057 0.034 0.057 0.023 0.126 0.046 0.183 0.080 0.011 0 0.011 0 0.011 0 0.057 0.034 0.114 0.057 0.171 0.091 0.023 0.011 0.034 0.023 0.057 0.034 0.046 0.011 0.080 0.034 0.114 0.057 0.023 0.011 0.046 0.034 0.069 0.046 0.034 0.023 0.069 0.046 0.103 0.069 0.023 0.011 0.057 0.023 0.080 0.046s0.057 0.046 0.091 0.069c0.023 0.011 0.046 0.023 0.069 0.046 0.034 0.023 0.057 0.046 0.091 0.069l0.069 0.057c0.034 0.023 0.057 0.046 0.091 0.069 0.023 0.023 0.034 0.046 0.057 0.057 0.034 0.034 0.057 0.057 0.091 0.080 0.023 0.023 0.034 0.046 0.057 0.057 0.034 0.034 0.069 0.069 0.091 0.103 0.023 0.011 0.034 0.023 0.046 0.046 0.046 0.046 0.091 0.091 0.137 0.149 0 0 0.011 0.011 0.011 0.011 0.034 0.046 0.069 0.091 0.114 0.137 0.011 0.023 0.023 0.034 0.034 0.057 0.023 0.034 0.057 0.069 0.080 0.103 0.011 0.023 0.023 0.046 0.046 0.069 0.023 0.034 0.046 0.069 0.069 0.103 0.011 0.023 0.023 0.046 0.034 0.069 0.023 0.034 0.046 0.069 0.069 0.103 0.011 0.023 0.023 0.046 0.034 0.069 0.023 0.034 0.034 0.069 0.057 0.103 0.011 0.023 0.023 0.057 0.034 0.080 0.023 0.034 0.034 0.069 0.057 0.103 0.011 0.023 0.023 0.057 0.023 0.080 0.023 0.034 0.034 0.080 0.057 0.114 0 0.023 0.011 0.046 0.023 0.069 0.011 0.046 0.034 0.091 0.046 0.137 0.011 0.023 0.011 0.034 0.023 0.057 0.023 0.057 0.034 0.126 0.057 0.194 0 0.011 0 0.023 0 0.034 0.023 0.057 0.034 0.103 0.046 0.16 0 0.023 0.011 0.046 0.011 0.069 0.011 0.034 0.011 0.069 0.023 0.114h2.96c0.149 0 0.263-0.126 0.263-0.263v-2.949h-1.12v-1.406h1.12v-1.806c0-0.857-0.514-1.611-1.326-1.92l-2.697-1.051h-10.206v9.394zM30.034 15.623h9.246l-2.594-5.943c-0.286-0.663-0.949-1.086-1.691-1.086h-4.96v7.029zM11.783 30.011c1.634 0 2.971-1.291 2.971-2.891s-1.337-2.891-2.971-2.891c-0.046 0-0.103 0-0.149 0-1.371 0.069-2.491 1.040-2.754 2.309-0.011 0.046-0.023 0.091-0.034 0.149-0.011 0.091-0.023 0.183-0.023 0.286-0.011 0.046-0.011 0.103-0.011 0.149 0 1.6 1.337 2.891 2.971 2.891zM1.44 21.806h1.12v1.406h-1.12v3.131c0 0.046 0.034 0.080 0.069 0.080h5.92c0.011-0.046 0.011-0.080 0.023-0.114 0-0.023 0.011-0.046 0.011-0.069 0.011-0.057 0.023-0.103 0.046-0.16 0-0.011 0-0.023 0-0.034 0.023-0.069 0.046-0.126 0.057-0.194 0.011-0.023 0.023-0.046 0.023-0.057 0.011-0.046 0.034-0.091 0.046-0.137 0.011-0.023 0.023-0.046 0.034-0.069 0.011-0.034 0.023-0.080 0.046-0.114 0.011-0.023 0.023-0.057 0.034-0.080 0.011-0.034 0.023-0.069 0.046-0.103 0.011-0.023 0.023-0.057 0.034-0.080 0.023-0.034 0.034-0.069 0.057-0.103 0.011-0.023 0.023-0.046 0.046-0.069 0.011-0.034 0.034-0.069 0.057-0.103 0.011-0.023 0.023-0.046 0.046-0.069 0.011-0.034 0.034-0.069 0.057-0.103 0.023-0.023 0.034-0.046 0.046-0.069 0.023-0.034 0.057-0.069 0.080-0.103 0.011-0.023 0.023-0.034 0.046-0.057 0.034-0.046 0.069-0.091 0.103-0.126 0-0.011 0.011-0.023 0.011-0.023 0.046-0.057 0.091-0.103 0.137-0.149 0.011-0.023 0.034-0.034 0.046-0.046 0.034-0.034 0.057-0.069 0.091-0.103 0.023-0.011 0.034-0.034 0.057-0.057 0.034-0.023 0.057-0.046 0.091-0.080 0.023-0.011 0.046-0.034 0.057-0.057 0.034-0.023 0.069-0.046 0.091-0.069s0.046-0.034 0.069-0.057c0.034-0.023 0.057-0.046 0.091-0.069 0.023-0.023 0.046-0.034 0.069-0.046 0.034-0.023 0.069-0.046 0.103-0.069 0.023-0.023 0.046-0.034 0.069-0.046 0.034-0.023 0.069-0.046 0.103-0.069 0.023-0.011 0.046-0.034 0.069-0.046 0.034-0.023 0.069-0.046 0.114-0.057 0.023-0.011 0.034-0.023 0.057-0.034 0.057-0.034 0.114-0.057 0.171-0.091 0 0 0.011 0 0.011 0 0.057-0.034 0.126-0.057 0.183-0.080 0.023-0.011 0.046-0.023 0.069-0.034 0.034-0.011 0.080-0.034 0.126-0.046 0.023-0.011 0.046-0.011 0.080-0.023s0.069-0.034 0.114-0.046c0.023 0 0.057-0.011 0.080-0.023 0.046-0.011 0.080-0.023 0.114-0.034 0.034 0 0.057-0.011 0.091-0.011 0.034-0.011 0.080-0.023 0.114-0.034 0.034 0 0.057-0.011 0.091-0.011 0.034-0.011 0.080-0.023 0.114-0.023 0.034-0.011 0.057-0.011 0.091-0.011 0.046-0.011 0.080-0.011 0.126-0.023 0.034 0 0.057 0 0.080-0.011 0.057 0 0.103 0 0.149-0.011 0.023 0 0.046 0 0.069 0 0.069 0 0.149 0 0.217 0s0.149 0 0.217 0c0.023 0 0.046 0 0.069 0 0.046 0.011 0.091 0.011 0.149 0.011 0.023 0.011 0.046 0.011 0.080 0.011 0.046 0.011 0.080 0.011 0.126 0.023 0.034 0 0.057 0 0.091 0.011 0.034 0 0.080 0.011 0.114 0.023 0.034 0 0.057 0.011 0.091 0.011 0.034 0.011 0.080 0.023 0.114 0.034 0.034 0 0.057 0.011 0.091 0.011 0.034 0.011 0.080 0.023 0.114 0.034 0.023 0.011 0.057 0.023 0.080 0.023 0.046 0.011 0.080 0.034 0.126 0.046 0.023 0.011 0.046 0.011 0.069 0.023 0.046 0.011 0.091 0.034 0.137 0.046 0.011 0.011 0.034 0.023 0.057 0.034 0.057 0.023 0.126 0.046 0.183 0.080 0.011 0 0.011 0 0.011 0 0.057 0.034 0.114 0.057 0.171 0.091 0.023 0.011 0.034 0.023 0.057 0.034 0.046 0.011 0.080 0.034 0.114 0.057 0.023 0.011 0.046 0.034 0.069 0.046 0.034 0.023 0.069 0.046 0.103 0.069 0.023 0.011 0.046 0.023 0.080 0.046 0.023 0.023 0.057 0.046 0.091 0.069 0.023 0.011 0.046 0.023 0.069 0.046 0.034 0.023 0.057 0.046 0.091 0.069 0.023 0.023 0.046 0.034 0.069 0.057s0.057 0.046 0.091 0.069c0.011 0.023 0.034 0.046 0.057 0.057 0.034 0.034 0.057 0.057 0.091 0.080 0.023 0.023 0.034 0.046 0.057 0.057 0.034 0.034 0.069 0.069 0.091 0.103 0.023 0.011 0.034 0.023 0.046 0.046 0.046 0.046 0.091 0.091 0.137 0.149 0 0 0.011 0.011 0.011 0.011 0.034 0.046 0.069 0.091 0.103 0.137 0.023 0.023 0.034 0.034 0.046 0.057 0.023 0.034 0.057 0.069 0.080 0.103 0.011 0.023 0.023 0.046 0.046 0.069 0.023 0.034 0.046 0.069 0.057 0.103 0.023 0.023 0.034 0.046 0.046 0.069 0.023 0.034 0.046 0.069 0.057 0.103 0.023 0.023 0.034 0.046 0.046 0.069 0.023 0.034 0.034 0.069 0.057 0.103 0.011 0.023 0.023 0.057 0.034 0.080 0.023 0.034 0.034 0.069 0.046 0.103 0.011 0.023 0.023 0.057 0.034 0.080 0.023 0.034 0.034 0.080 0.057 0.114 0 0.023 0.011 0.046 0.023 0.069 0.011 0.046 0.034 0.091 0.046 0.137 0.011 0.023 0.011 0.034 0.023 0.057 0.011 0.057 0.034 0.126 0.057 0.194 0 0.011 0 0.023 0 0.034 0.023 0.046 0.034 0.103 0.046 0.16 0 0.023 0.011 0.046 0.011 0.069 0.011 0.034 0.011 0.069 0.023 0.114h12.446v-20.903c0-0.389 0.331-0.697 0.72-0.697h10.423c0.023 0 0.069 0 0.103-0.069 0.034-0.057 0.011-0.103 0-0.114l-2.251-3.303c-0.229-0.32-0.583-0.503-0.983-0.503h-18.811c-0.114 0-0.206 0.034-0.286 0.103l-1.189 1.166c-0.343 0.343-0.811 0.526-1.303 0.526h-12.4c-0.651 0-1.166 0.514-1.166 1.143v18.034z"></path>
<path d="M20.114 6.617h4.549c0.926 0 1.68 0.731 1.68 1.634v15.040c0 0.389-0.331 0.709-0.72 0.709h-6.457c-0.4 0-0.72-0.32-0.72-0.709v-15.040c0-0.903 0.743-1.634 1.669-1.634zM19.886 22.594h5.006v-8.274h-5.006v8.274zM19.886 12.914h5.006v-4.663c0-0.126-0.103-0.229-0.229-0.229h-4.549c-0.126 0-0.229 0.103-0.229 0.229v4.663z"></path>
</symbol>

<symbol id="icon-alcove" viewBox="0 0 46 32">
<path d="M2.606 1.223h12.4c0.114 0 0.206-0.046 0.286-0.114l1.189-1.166c0.343-0.331 0.811-0.514 1.303-0.514h18.811c0.88 0 1.691 0.423 2.171 1.131l2.263 3.303c0.32 0.469 0.343 1.063 0.080 1.566-0.274 0.491-0.8 0.8-1.383 0.8h-9.691v0.96h4.96c1.314 0 2.503 0.754 3.017 1.943l2.914 6.651 2.549 0.994c1.36 0.526 2.24 1.794 2.24 3.223v6.16c0 0.914-0.777 1.669-1.714 1.669h-2.96c-0.343 2.034-2.171 3.6-4.354 3.6s-4-1.566-4.354-3.6h-16.194c-0.354 2.034-2.171 3.6-4.354 3.6s-4-1.566-4.354-3.6h-5.92c-0.834 0-1.509-0.674-1.509-1.486v-22.571c0-1.406 1.166-2.549 2.606-2.549zM36.686 30.011c1.634 0 2.971-1.291 2.971-2.891s-1.337-2.891-2.971-2.891c-1.634 0-2.971 1.291-2.971 2.891s1.337 2.891 2.971 2.891zM30.034 26.423h2.297c0.011-0.046 0.023-0.080 0.023-0.114 0.011-0.023 0.011-0.046 0.011-0.069 0.011-0.057 0.034-0.103 0.046-0.16 0-0.011 0-0.023 0-0.034 0.023-0.069 0.046-0.137 0.057-0.194 0.011-0.023 0.023-0.034 0.023-0.057 0.011-0.046 0.034-0.091 0.046-0.137 0.011-0.023 0.023-0.046 0.034-0.069 0.011-0.034 0.023-0.080 0.046-0.114 0.011-0.023 0.023-0.057 0.034-0.080 0.011-0.034 0.023-0.069 0.046-0.103 0.011-0.023 0.023-0.057 0.034-0.080 0.023-0.034 0.034-0.069 0.057-0.103 0.011-0.023 0.023-0.046 0.046-0.069 0.011-0.034 0.034-0.069 0.057-0.103 0.011-0.023 0.023-0.046 0.046-0.069 0.023-0.034 0.034-0.069 0.057-0.103 0.023-0.023 0.034-0.046 0.046-0.069 0.023-0.034 0.057-0.069 0.080-0.103 0.011-0.023 0.023-0.034 0.046-0.057 0.034-0.046 0.069-0.091 0.103-0.137 0.011 0 0.011-0.011 0.023-0.011 0.034-0.057 0.080-0.103 0.126-0.149 0.011-0.023 0.034-0.034 0.046-0.046 0.034-0.034 0.057-0.069 0.091-0.103 0.023-0.011 0.046-0.034 0.057-0.057 0.034-0.023 0.057-0.046 0.091-0.080 0.023-0.011 0.046-0.034 0.057-0.057 0.034-0.023 0.069-0.046 0.091-0.069l0.069-0.057c0.034-0.023 0.057-0.046 0.091-0.069 0.023-0.023 0.046-0.034 0.069-0.046 0.034-0.023 0.069-0.046 0.103-0.069 0.023-0.023 0.046-0.034 0.069-0.046 0.034-0.023 0.069-0.046 0.103-0.069 0.023-0.011 0.046-0.034 0.069-0.046 0.034-0.023 0.080-0.046 0.114-0.057 0.023-0.011 0.034-0.023 0.057-0.034 0.057-0.034 0.114-0.057 0.171-0.091 0 0 0.011 0 0.011 0 0.057-0.034 0.126-0.057 0.183-0.080 0.023-0.011 0.046-0.023 0.069-0.034 0.034-0.011 0.080-0.034 0.126-0.046 0.023-0.011 0.046-0.011 0.080-0.023s0.069-0.034 0.114-0.046c0.023 0 0.057-0.011 0.080-0.023 0.046-0.011 0.080-0.023 0.114-0.034 0.034 0 0.057-0.011 0.091-0.011 0.034-0.011 0.080-0.023 0.114-0.034 0.034 0 0.057-0.011 0.091-0.011 0.034-0.011 0.080-0.023 0.126-0.023 0.023-0.011 0.057-0.011 0.080-0.011 0.046-0.011 0.091-0.011 0.126-0.023 0.034 0 0.057 0 0.091-0.011 0.046 0 0.091 0 0.137-0.011 0.023 0 0.046 0 0.069 0 0.069 0 0.149 0 0.217 0s0.149 0 0.217 0c0.023 0 0.046 0 0.069 0 0.046 0.011 0.103 0.011 0.149 0.011 0.023 0.011 0.057 0.011 0.080 0.011 0.046 0.011 0.080 0.011 0.126 0.023 0.034 0 0.057 0 0.091 0.011 0.034 0 0.080 0.011 0.114 0.023 0.034 0 0.057 0.011 0.091 0.011 0.034 0.011 0.080 0.023 0.114 0.034 0.034 0 0.057 0.011 0.091 0.011 0.034 0.011 0.080 0.023 0.114 0.034 0.023 0.011 0.057 0.023 0.080 0.023 0.046 0.011 0.080 0.034 0.126 0.046 0.023 0.011 0.046 0.011 0.069 0.023 0.046 0.011 0.091 0.034 0.137 0.046 0.011 0.011 0.034 0.023 0.057 0.034 0.057 0.023 0.126 0.046 0.183 0.080 0.011 0 0.011 0 0.011 0 0.057 0.034 0.114 0.057 0.171 0.091 0.023 0.011 0.034 0.023 0.057 0.034 0.046 0.011 0.080 0.034 0.114 0.057 0.023 0.011 0.046 0.034 0.069 0.046 0.034 0.023 0.069 0.046 0.103 0.069 0.023 0.011 0.057 0.023 0.080 0.046s0.057 0.046 0.091 0.069c0.023 0.011 0.046 0.023 0.069 0.046 0.034 0.023 0.057 0.046 0.091 0.069l0.069 0.057c0.034 0.023 0.057 0.046 0.091 0.069 0.023 0.023 0.034 0.046 0.057 0.057 0.034 0.034 0.057 0.057 0.091 0.080 0.023 0.023 0.034 0.046 0.057 0.057 0.034 0.034 0.069 0.069 0.091 0.103 0.023 0.011 0.034 0.023 0.046 0.046 0.046 0.046 0.091 0.091 0.137 0.149 0 0 0.011 0.011 0.011 0.011 0.034 0.046 0.069 0.091 0.114 0.137 0.011 0.023 0.023 0.034 0.034 0.057 0.023 0.034 0.057 0.069 0.080 0.103 0.011 0.023 0.023 0.046 0.046 0.069 0.023 0.034 0.046 0.069 0.069 0.103 0.011 0.023 0.023 0.046 0.034 0.069 0.023 0.034 0.046 0.069 0.069 0.103 0.011 0.023 0.023 0.046 0.034 0.069 0.023 0.034 0.034 0.069 0.057 0.103 0.011 0.023 0.023 0.057 0.034 0.080 0.023 0.034 0.034 0.069 0.057 0.103 0.011 0.023 0.023 0.057 0.023 0.080 0.023 0.034 0.034 0.080 0.057 0.114 0 0.023 0.011 0.046 0.023 0.069 0.011 0.046 0.034 0.091 0.046 0.137 0.011 0.023 0.011 0.034 0.023 0.057 0.023 0.057 0.034 0.126 0.057 0.194 0 0.011 0 0.023 0 0.034 0.023 0.057 0.034 0.103 0.046 0.16 0 0.023 0.011 0.046 0.011 0.069 0.011 0.034 0.011 0.069 0.023 0.114h2.96c0.149 0 0.263-0.126 0.263-0.263v-2.949h-1.12v-1.406h1.12v-1.806c0-0.857-0.514-1.611-1.326-1.92l-2.697-1.051h-10.206v9.394zM30.034 15.623h9.246l-2.594-5.943c-0.286-0.663-0.949-1.086-1.691-1.086h-4.96v7.029zM11.783 30.011c1.634 0 2.971-1.291 2.971-2.891s-1.337-2.891-2.971-2.891c-0.046 0-0.103 0-0.149 0-1.371 0.069-2.491 1.040-2.754 2.309-0.011 0.046-0.023 0.091-0.034 0.149-0.011 0.091-0.023 0.183-0.023 0.286-0.011 0.046-0.011 0.103-0.011 0.149 0 1.6 1.337 2.891 2.971 2.891zM1.44 21.806h1.12v1.406h-1.12v3.131c0 0.046 0.034 0.080 0.069 0.080h5.92c0.011-0.046 0.011-0.080 0.023-0.114 0-0.023 0.011-0.046 0.011-0.069 0.011-0.057 0.023-0.103 0.046-0.16 0-0.011 0-0.023 0-0.034 0.023-0.069 0.046-0.126 0.057-0.194 0.011-0.023 0.023-0.046 0.023-0.057 0.011-0.046 0.034-0.091 0.046-0.137 0.011-0.023 0.023-0.046 0.034-0.069 0.011-0.034 0.023-0.080 0.046-0.114 0.011-0.023 0.023-0.057 0.034-0.080 0.011-0.034 0.023-0.069 0.046-0.103 0.011-0.023 0.023-0.057 0.034-0.080 0.023-0.034 0.034-0.069 0.057-0.103 0.011-0.023 0.023-0.046 0.046-0.069 0.011-0.034 0.034-0.069 0.057-0.103 0.011-0.023 0.023-0.046 0.046-0.069 0.011-0.034 0.034-0.069 0.057-0.103 0.023-0.023 0.034-0.046 0.046-0.069 0.023-0.034 0.057-0.069 0.080-0.103 0.011-0.023 0.023-0.034 0.046-0.057 0.034-0.046 0.069-0.091 0.103-0.126 0-0.011 0.011-0.023 0.011-0.023 0.046-0.057 0.091-0.103 0.137-0.149 0.011-0.023 0.034-0.034 0.046-0.046 0.034-0.034 0.057-0.069 0.091-0.103 0.023-0.011 0.034-0.034 0.057-0.057 0.034-0.023 0.057-0.046 0.091-0.080 0.023-0.011 0.046-0.034 0.057-0.057 0.034-0.023 0.069-0.046 0.091-0.069s0.046-0.034 0.069-0.057c0.034-0.023 0.057-0.046 0.091-0.069 0.023-0.023 0.046-0.034 0.069-0.046 0.034-0.023 0.069-0.046 0.103-0.069 0.023-0.023 0.046-0.034 0.069-0.046 0.034-0.023 0.069-0.046 0.103-0.069 0.023-0.011 0.046-0.034 0.069-0.046 0.034-0.023 0.069-0.046 0.114-0.057 0.023-0.011 0.034-0.023 0.057-0.034 0.057-0.034 0.114-0.057 0.171-0.091 0 0 0.011 0 0.011 0 0.057-0.034 0.126-0.057 0.183-0.080 0.023-0.011 0.046-0.023 0.069-0.034 0.034-0.011 0.080-0.034 0.126-0.046 0.023-0.011 0.046-0.011 0.080-0.023s0.069-0.034 0.114-0.046c0.023 0 0.057-0.011 0.080-0.023 0.046-0.011 0.080-0.023 0.114-0.034 0.034 0 0.057-0.011 0.091-0.011 0.034-0.011 0.080-0.023 0.114-0.034 0.034 0 0.057-0.011 0.091-0.011 0.034-0.011 0.080-0.023 0.114-0.023 0.034-0.011 0.057-0.011 0.091-0.011 0.046-0.011 0.080-0.011 0.126-0.023 0.034 0 0.057 0 0.080-0.011 0.057 0 0.103 0 0.149-0.011 0.023 0 0.046 0 0.069 0 0.069 0 0.149 0 0.217 0s0.149 0 0.217 0c0.023 0 0.046 0 0.069 0 0.046 0.011 0.091 0.011 0.149 0.011 0.023 0.011 0.046 0.011 0.080 0.011 0.046 0.011 0.080 0.011 0.126 0.023 0.034 0 0.057 0 0.091 0.011 0.034 0 0.080 0.011 0.114 0.023 0.034 0 0.057 0.011 0.091 0.011 0.034 0.011 0.080 0.023 0.114 0.034 0.034 0 0.057 0.011 0.091 0.011 0.034 0.011 0.080 0.023 0.114 0.034 0.023 0.011 0.057 0.023 0.080 0.023 0.046 0.011 0.080 0.034 0.126 0.046 0.023 0.011 0.046 0.011 0.069 0.023 0.046 0.011 0.091 0.034 0.137 0.046 0.011 0.011 0.034 0.023 0.057 0.034 0.057 0.023 0.126 0.046 0.183 0.080 0.011 0 0.011 0 0.011 0 0.057 0.034 0.114 0.057 0.171 0.091 0.023 0.011 0.034 0.023 0.057 0.034 0.046 0.011 0.080 0.034 0.114 0.057 0.023 0.011 0.046 0.034 0.069 0.046 0.034 0.023 0.069 0.046 0.103 0.069 0.023 0.011 0.046 0.023 0.080 0.046 0.023 0.023 0.057 0.046 0.091 0.069 0.023 0.011 0.046 0.023 0.069 0.046 0.034 0.023 0.057 0.046 0.091 0.069 0.023 0.023 0.046 0.034 0.069 0.057s0.057 0.046 0.091 0.069c0.011 0.023 0.034 0.046 0.057 0.057 0.034 0.034 0.057 0.057 0.091 0.080 0.023 0.023 0.034 0.046 0.057 0.057 0.034 0.034 0.069 0.069 0.091 0.103 0.023 0.011 0.034 0.023 0.046 0.046 0.046 0.046 0.091 0.091 0.137 0.149 0 0 0.011 0.011 0.011 0.011 0.034 0.046 0.069 0.091 0.103 0.137 0.023 0.023 0.034 0.034 0.046 0.057 0.023 0.034 0.057 0.069 0.080 0.103 0.011 0.023 0.023 0.046 0.046 0.069 0.023 0.034 0.046 0.069 0.057 0.103 0.023 0.023 0.034 0.046 0.046 0.069 0.023 0.034 0.046 0.069 0.057 0.103 0.023 0.023 0.034 0.046 0.046 0.069 0.023 0.034 0.034 0.069 0.057 0.103 0.011 0.023 0.023 0.057 0.034 0.080 0.023 0.034 0.034 0.069 0.046 0.103 0.011 0.023 0.023 0.057 0.034 0.080 0.023 0.034 0.034 0.080 0.057 0.114 0 0.023 0.011 0.046 0.023 0.069 0.011 0.046 0.034 0.091 0.046 0.137 0.011 0.023 0.011 0.034 0.023 0.057 0.011 0.057 0.034 0.126 0.057 0.194 0 0.011 0 0.023 0 0.034 0.023 0.046 0.034 0.103 0.046 0.16 0 0.023 0.011 0.046 0.011 0.069 0.011 0.034 0.011 0.069 0.023 0.114h12.446v-20.903c0-0.389 0.331-0.697 0.72-0.697h10.423c0.023 0 0.069 0 0.103-0.069 0.034-0.057 0.011-0.103 0-0.114l-2.251-3.303c-0.229-0.32-0.583-0.503-0.983-0.503h-18.811c-0.114 0-0.206 0.034-0.286 0.103l-1.189 1.166c-0.343 0.343-0.811 0.526-1.303 0.526h-12.4c-0.651 0-1.166 0.514-1.166 1.143v18.034z"></path>
<path d="M20.114 6.617h4.549c0.926 0 1.68 0.731 1.68 1.634v15.040c0 0.389-0.331 0.709-0.72 0.709h-6.457c-0.4 0-0.72-0.32-0.72-0.709v-15.040c0-0.903 0.743-1.634 1.669-1.634zM19.886 22.594h5.006v-8.274h-5.006v8.274zM19.886 12.914h5.006v-4.663c0-0.126-0.103-0.229-0.229-0.229h-4.549c-0.126 0-0.229 0.103-0.229 0.229v4.663zM5.531 6.617h8.811c1.017 0 1.851 0.811 1.851 1.806v4.103c0 0.994-0.834 1.806-1.851 1.806h-8.811c-1.017 0-1.851-0.811-1.851-1.806v-4.103c0-0.994 0.834-1.806 1.851-1.806zM5.12 12.526c0 0.217 0.183 0.389 0.411 0.389h8.811c0.229 0 0.411-0.171 0.411-0.389v-4.103c0-0.217-0.183-0.4-0.411-0.4h-8.811c-0.229 0-0.411 0.183-0.411 0.4v4.103z"></path>
</symbol>

<symbol id="icon-shower" viewBox="0 0 32 32">
<path stroke-linejoin="round" stroke-linecap="round" stroke-miterlimit="4" stroke-width="2" d="M5.333 5.333l3.333 3.333M18 8.667c-1.242-1.217-2.914-1.895-4.653-1.886s-3.404 0.703-4.634 1.933-1.924 2.895-1.933 4.634c-0.009 1.739 0.669 3.411 1.886 4.653M20 6.667l-13.333 13.333M18.667 22.667v0.013M13.333 21.333v0.013M17.333 17.333v0.013M21.333 13.333v0.013M14.667 26.667v0.013M22.667 18.667v0.013M26.667 14.667v0.013"></path>
</symbol>

<symbol id="icon-tv" viewBox="0 0 32 32">
<path stroke-linejoin="round" stroke-linecap="round" stroke-miterlimit="4" stroke-width="1.8" d="M24 26h-16c-2.216 0-4-1.784-4-4v-10c0-2.216 1.784-4 4-4h16c2.216 0 4 1.784 4 4v10c0 2.216-1.784 4-4 4z"></path>
<path stroke-linejoin="round" stroke-linecap="round" stroke-miterlimit="4" stroke-width="1.8" d="M12 30h8"></path>
<path stroke-linejoin="round" stroke-linecap="round" stroke-miterlimit="4" stroke-width="1.8" d="M16 8l6-6"></path>
<path stroke-linejoin="round" stroke-linecap="round" stroke-miterlimit="4" stroke-width="1.8" d="M16 8l-6-6"></path>
</symbol>

<symbol id="icon-calendar-btn" viewBox="0 0 32 32">
<path stroke-linejoin="round" stroke-linecap="round" stroke-miterlimit="4" stroke-width="2.4" d="M25.333 5.333h-18.667c-1.473 0-2.667 1.194-2.667 2.667v18.667c0 1.473 1.194 2.667 2.667 2.667h18.667c1.473 0 2.667-1.194 2.667-2.667v-18.667c0-1.473-1.194-2.667-2.667-2.667z"></path>
<path stroke-linejoin="round" stroke-linecap="round" stroke-miterlimit="4" stroke-width="2.4" d="M21.333 2.667v5.333"></path>
<path stroke-linejoin="round" stroke-linecap="round" stroke-miterlimit="4" stroke-width="2.4" d="M10.667 2.667v5.333"></path>
<path stroke-linejoin="round" stroke-linecap="round" stroke-miterlimit="4" stroke-width="2.4" d="M4 13.333h24"></path>
</symbol>

<symbol id="icon-gas" viewBox="0 0 26 32">
<path d="M23.849 14.578c-0.433-0.533-0.96-0.996-1.449-1.458-1.261-1.067-2.691-1.831-3.896-2.951-2.804-2.596-3.425-6.88-1.637-10.169-1.788 0.409-3.35 1.333-4.686 2.347-4.874 3.698-6.794 10.223-4.498 15.823 0.075 0.178 0.151 0.356 0.151 0.587 0 0.391-0.282 0.747-0.659 0.889-0.433 0.178-0.885 0.071-1.242-0.213-0.107-0.084-0.197-0.187-0.263-0.302-2.127-2.542-2.465-6.187-1.035-9.102-3.143 2.418-4.856 6.507-4.611 10.365 0.113 0.889 0.226 1.778 0.546 2.667 0.263 1.067 0.772 2.133 1.336 3.076 2.033 3.076 5.552 5.28 9.335 5.725 4.027 0.48 8.337-0.213 11.424-2.844 3.444-2.951 4.648-7.68 2.879-11.734l-0.245-0.462c-0.395-0.818-1.449-2.24-1.449-2.24zM17.902 25.778c-0.527 0.427-1.393 0.889-2.070 1.067-2.108 0.711-4.216-0.284-5.458-1.458 2.24-0.498 3.576-2.062 3.971-3.645 0.32-1.422-0.282-2.596-0.527-3.965-0.226-1.316-0.188-2.436 0.32-3.662 0.358 0.676 0.734 1.351 1.186 1.885 1.449 1.778 3.726 2.56 4.216 4.978 0.075 0.249 0.113 0.498 0.113 0.764 0.056 1.458-0.621 3.058-1.75 4.036z"></path>
</symbol>

<symbol id="icon-beds" viewBox="0 0 32 32">
<path stroke-linejoin="round" stroke-linecap="round" stroke-miterlimit="4" stroke-width="2.24" d="M3 26v-7c0.003-1.060 0.426-2.076 1.175-2.825s1.765-1.172 2.825-1.175h18c1.060 0.003 2.076 0.426 2.825 1.175s1.172 1.765 1.175 2.825v7M24 15h-18v-6.5c0.002-0.662 0.266-1.297 0.734-1.766s1.103-0.732 1.766-0.734h15c0.662 0.002 1.297 0.266 1.766 0.734s0.732 1.103 0.734 1.766v6.5h-2z"></path>
<path stroke-linejoin="round" stroke-linecap="round" stroke-miterlimit="4" stroke-width="2.24" d="M3 26v-0.5c0.001-0.397 0.16-0.778 0.441-1.059s0.662-0.44 1.059-0.441h23c0.397 0.001 0.778 0.16 1.059 0.441s0.44 0.662 0.441 1.059v0.5M7 15v-1c0.002-0.53 0.213-1.038 0.587-1.413s0.883-0.586 1.413-0.587h5c0.53 0.002 1.038 0.213 1.413 0.587s0.586 0.883 0.587 1.413M16 14v1M16 14c0.001-0.53 0.213-1.038 0.587-1.413s0.883-0.586 1.413-0.587h5c0.53 0.002 1.038 0.213 1.413 0.587s0.586 0.883 0.587 1.413v1"></path>
</symbol>

<symbol id="icon-kitchen" viewBox="0 0 32 32">
<path stroke-linejoin="round" stroke-linecap="round" stroke-miterlimit="4" stroke-width="2.4" d="M25.333 20v-16c-6.421 6.125-6.697 11.092-6.667 16h6.667zM25.333 20v8h-1.333v-4M10.667 5.333v22.667M6.667 5.333v4c0 1.061 0.421 2.078 1.172 2.828s1.768 1.172 2.828 1.172c1.061 0 2.078-0.421 2.828-1.172s1.172-1.768 1.172-2.828v-4"></path>
</symbol>

<symbol id="icon-petrol" viewBox="0 0 32 32">
<path d="M26.36 9.64l0.013-0.013-4.96-4.96-1.413 1.413 2.813 2.813c-1.253 0.48-2.147 1.68-2.147 3.107 0 0.438 0.086 0.871 0.254 1.276s0.413 0.772 0.723 1.081c0.625 0.625 1.473 0.976 2.357 0.976 0.48 0 0.92-0.107 1.333-0.28v9.613c0 0.354-0.14 0.693-0.391 0.943s-0.589 0.391-0.943 0.391c-0.354 0-0.693-0.14-0.943-0.391s-0.391-0.589-0.391-0.943v-6c0-0.707-0.281-1.386-0.781-1.886s-1.178-0.781-1.886-0.781h-1.333v-9.333c0-0.707-0.281-1.386-0.781-1.886s-1.178-0.781-1.886-0.781h-8c-0.707 0-1.386 0.281-1.886 0.781s-0.781 1.178-0.781 1.886v21.333h13.333v-10h2v6.667c0 0.884 0.351 1.732 0.976 2.357s1.473 0.976 2.357 0.976c0.438 0 0.871-0.086 1.276-0.254s0.772-0.413 1.081-0.723c0.309-0.309 0.555-0.677 0.723-1.081s0.254-0.838 0.254-1.276v-12.667c0-0.92-0.373-1.76-0.973-2.36zM16 18v7.333h-8v-9.333h8v2zM16 13.333h-8v-6.667h8v6.667zM24 13.333c-0.354 0-0.693-0.14-0.943-0.39s-0.391-0.589-0.391-0.943 0.14-0.693 0.391-0.943c0.25-0.25 0.589-0.39 0.943-0.39s0.693 0.14 0.943 0.39c0.25 0.25 0.391 0.589 0.391 0.943s-0.14 0.693-0.391 0.943c-0.25 0.25-0.589 0.39-0.943 0.39z"></path>
</symbol>

<symbol id="icon-automatic" viewBox="0 0 32 32">
<path stroke-linejoin="round" stroke-linecap="round" stroke-miterlimit="4" stroke-width="2.4" d="M22.667 14.667h2c0.53 0 1.039-0.211 1.414-0.586s0.586-0.884 0.586-1.414-0.211-1.039-0.586-1.414c-0.375-0.375-0.884-0.586-1.414-0.586h-2v6.667M22.667 22.667v5.333h1.333c0.707 0 1.386-0.281 1.886-0.781s0.781-1.178 0.781-1.886c0-0.707-0.281-1.385-0.781-1.886s-1.178-0.781-1.886-0.781h-1.333zM4 6.667c0 0.707 0.281 1.386 0.781 1.886s1.178 0.781 1.886 0.781c0.707 0 1.386-0.281 1.886-0.781s0.781-1.178 0.781-1.886c0-0.707-0.281-1.386-0.781-1.886s-1.178-0.781-1.886-0.781c-0.707 0-1.386 0.281-1.886 0.781s-0.781 1.178-0.781 1.886z"></path>
<path stroke-linejoin="round" stroke-linecap="round" stroke-miterlimit="4" stroke-width="2.4" d="M6.667 9.333v4c0 0.354 0.14 0.693 0.391 0.943s0.589 0.391 0.943 0.391h4M12 14.667v9.333c0 0.354 0.14 0.693 0.391 0.943s0.589 0.39 0.943 0.39h4M12 14.667h5.333"></path>
</symbol>

<symbol id="icon-adults" viewBox="0 0 32 32">
<path d="M9.067 24.133h-4.4c-0.267 0-0.4-0.133-0.533-0.267s-0.267-0.4-0.133-0.667c0.8-2.267 2.8-3.6 5.067-3.6 2.8 0 5.067-2.4 5.067-5.2s-2.267-5.467-5.067-5.467-5.067 2.4-5.067 5.333c0 1.333 0.533 2.667 1.333 3.6-1.733 0.933-3.067 2.4-3.867 4.4-0.267 0.933-0.133 2.133 0.533 3.067s1.6 1.467 2.667 1.467h4.4c0.8 0 1.333-0.533 1.333-1.333s-0.533-1.333-1.333-1.333zM6.667 14.267c0-1.467 1.067-2.533 2.4-2.533s2.4 1.2 2.4 2.533c0 1.467-1.067 2.533-2.4 2.533s-2.4-1.2-2.4-2.533z"></path>
<path d="M30.533 21.467c-0.933-2.533-2.8-4.4-4.933-5.467 1.2-1.067 1.867-2.667 1.867-4.533 0-3.467-2.667-6.267-5.867-6.267s-5.867 2.8-5.867 6.267c0 1.733 0.667 3.333 1.867 4.533-2.133 1.067-4 2.933-4.933 5.467-0.667 1.2-0.4 2.533 0.267 3.6s1.867 1.6 3.067 1.6h11.067c1.2 0 2.4-0.667 3.067-1.6 0.8-1.067 0.933-2.4 0.4-3.6zM18.267 11.6c0-2 1.467-3.6 3.2-3.6s3.2 1.6 3.2 3.6-1.467 3.6-3.2 3.6c-1.733 0-3.2-1.733-3.2-3.6zM27.867 23.6c-0.133 0.133-0.4 0.533-0.8 0.533h-11.067c-0.533 0-0.8-0.4-0.8-0.533-0.133-0.133-0.4-0.667-0.133-1.2 1.067-2.8 3.733-4.667 6.533-4.667s5.467 1.867 6.533 4.667c0.133 0.533-0.133 1.067-0.267 1.2z"></path>
</symbol>

<symbol id="icon-route" viewBox="0 0 32 32">
<path d="M6.667 4c-1.473 0-2.667 1.194-2.667 2.667s1.194 2.667 2.667 2.667c1.473 0 2.667-1.194 2.667-2.667s-1.194-2.667-2.667-2.667zM1.333 6.667c0-2.946 2.388-5.333 5.333-5.333s5.333 2.388 5.333 5.333c0 2.946-2.388 5.333-5.333 5.333s-5.333-2.388-5.333-5.333z"></path>
<path d="M25.333 22.667c-1.473 0-2.667 1.194-2.667 2.667s1.194 2.667 2.667 2.667c1.473 0 2.667-1.194 2.667-2.667s-1.194-2.667-2.667-2.667zM20 25.333c0-2.945 2.388-5.333 5.333-5.333s5.333 2.388 5.333 5.333c0 2.946-2.388 5.333-5.333 5.333s-5.333-2.388-5.333-5.333z"></path>
<path d="M13.333 6.667c0-0.736 0.597-1.333 1.333-1.333h8.4c4.13 0 5.62 5.404 1.987 7.429l-15.473 8.804c-1.16 0.644-0.782 2.434 0.686 2.434h7.067c0.736 0 1.333 0.597 1.333 1.333s-0.597 1.333-1.333 1.333h-7.067c-4.13 0-5.619-5.404-1.987-7.429l15.473-8.804c1.16-0.644 0.782-2.434-0.686-2.434h-8.4c-0.736 0-1.333-0.597-1.333-1.333z"></path>
</symbol>

<symbol id="icon-ac" viewBox="0 0 40 32">
<path d="M19.36 0c-1.86 0-3.68 0.64-5.14 1.8-1.44 1.18-2.44 2.8-2.82 4.62l-0.14 0.72c-0.040 0.16-0.040 0.32-0.020 0.48 0.040 0.16 0.1 0.32 0.18 0.46 0.1 0.14 0.22 0.26 0.36 0.36 0.14 0.080 0.3 0.16 0.46 0.18 0.16 0.040 0.34 0.040 0.5 0s0.32-0.1 0.46-0.2c0.14-0.080 0.24-0.2 0.34-0.34 0.080-0.14 0.14-0.3 0.18-0.46l0.14-0.72c0.28-1.34 1.060-2.54 2.18-3.36 1.12-0.8 2.5-1.18 3.88-1.040 1.4 0.14 2.68 0.76 3.62 1.78 0.92 1.020 1.44 2.34 1.46 3.7 0 1.48-0.6 2.88-1.66 3.92s-2.48 1.62-3.98 1.62h-18.12c-0.34 0-0.64 0.14-0.88 0.36-0.24 0.24-0.36 0.56-0.36 0.88s0.12 0.64 0.36 0.86c0.24 0.24 0.54 0.38 0.88 0.38h18.12c2.12-0.060 4.14-0.92 5.62-2.42s2.32-3.5 2.32-5.58c0-2.1-0.84-4.1-2.32-5.6s-3.48-2.36-5.62-2.4zM33.74 11.060c-1.66 0-3.24 0.66-4.42 1.8-1.18 1.16-1.82 2.72-1.82 4.36 0 0.32 0.12 0.64 0.36 0.88 0.24 0.22 0.54 0.36 0.88 0.36s0.64-0.14 0.88-0.36c0.24-0.24 0.38-0.56 0.38-0.88 0-0.72 0.22-1.44 0.62-2.060 0.42-0.6 1-1.080 1.68-1.36 0.7-0.26 1.44-0.34 2.18-0.2 0.72 0.14 1.38 0.5 1.92 1 0.52 0.52 0.88 1.18 1.020 1.9s0.060 1.46-0.22 2.14c-0.28 0.66-0.76 1.24-1.38 1.66-0.62 0.4-1.34 0.62-2.080 0.62h-32.5c-0.34 0-0.64 0.12-0.88 0.36-0.24 0.22-0.36 0.54-0.36 0.86 0 0.34 0.12 0.64 0.36 0.88 0.24 0.22 0.54 0.36 0.88 0.36h24.38c0.82 0 1.62 0.32 2.2 0.9s0.92 1.36 0.92 2.18c0 0.82-0.34 1.6-0.92 2.18-0.6 0.56-1.38 0.9-2.22 0.88-0.74 0-1.46-0.26-2.040-0.72-0.56-0.48-0.94-1.14-1.080-1.86v-0.080c-0.020-0.16-0.080-0.32-0.18-0.46-0.080-0.14-0.18-0.26-0.32-0.36s-0.3-0.16-0.46-0.2c-0.16-0.040-0.32-0.060-0.5-0.020-0.16 0.020-0.32 0.080-0.46 0.18-0.14 0.080-0.26 0.2-0.36 0.32-0.080 0.14-0.16 0.3-0.18 0.46-0.040 0.16-0.040 0.32-0.020 0.48l0.020 0.080c0.22 1.3 0.9 2.48 1.92 3.34 1.020 0.84 2.32 1.32 3.66 1.32 1.5 0 2.92-0.6 3.98-1.64 1.060-1.020 1.66-2.44 1.66-3.9 0-1.14-0.34-2.2-0.94-3.080h3.44c1.66 0 3.24-0.66 4.42-1.8 1.18-1.16 1.84-2.72 1.84-4.36s-0.66-3.2-1.84-4.36c-1.18-1.14-2.76-1.8-4.42-1.8z"></path>
<path d="M25.68 3.2c-0.22-0.28-0.44-0.54-0.7-0.8-1.48-1.5-3.48-2.36-5.62-2.4-0.64 0-1.28 0.060-1.88 0.22-1.2 0.28-2.3 0.82-3.26 1.58-0.62 0.5-1.16 1.080-1.58 1.72-0.52 0.76-0.9 1.58-1.14 2.48-0.020 0.14-0.060 0.28-0.1 0.42l-0.14 0.72c-0.040 0.16-0.040 0.32-0.020 0.48 0.040 0.16 0.1 0.32 0.18 0.46 0.1 0.14 0.22 0.26 0.36 0.36 0.14 0.080 0.3 0.16 0.46 0.18 0.16 0.040 0.34 0.040 0.5 0s0.32-0.1 0.46-0.2c0.14-0.080 0.24-0.2 0.34-0.34 0.080-0.14 0.14-0.3 0.18-0.46l0.14-0.72c0.060-0.32 0.16-0.62 0.28-0.9 0.38-0.98 1.040-1.82 1.9-2.46 0 0 0.020 0 0.020-0.020 0.94-0.68 2.080-1.040 3.24-1.060 0.020 0 0.040 0 0.080 0 0.1 0 0.22 0.020 0.34 0.020 0.060 0 0.14 0 0.2 0.020 1.4 0.14 2.68 0.76 3.62 1.78 0.060 0.080 0.12 0.14 0.18 0.22 0.56 0.66 0.94 1.44 1.14 2.28 0.080 0.38 0.12 0.8 0.14 1.2 0 0.48-0.080 0.96-0.2 1.4-0.14 0.54-0.36 1.060-0.66 1.54-0.22 0.34-0.5 0.68-0.8 0.98-0.28 0.28-0.56 0.52-0.88 0.72-0.48 0.3-1 0.54-1.56 0.7-0.060 0.020-0.14 0.040-0.22 0.060-0.040 0-0.1 0.020-0.14 0.020-0.38 0.080-0.78 0.12-1.18 0.12h-18.12c-0.34 0-0.64 0.14-0.88 0.36-0.24 0.24-0.36 0.56-0.36 0.88s0.12 0.64 0.36 0.86c0.24 0.24 0.54 0.38 0.88 0.38h18.12c0.14-0.020 0.28-0.020 0.42-0.020 0.080-0.020 0.18-0.020 0.26-0.040 0.020 0 0.040 0 0.040 0 0.28-0.040 0.58-0.080 0.84-0.14 1.54-0.34 2.96-1.1 4.060-2.22 0.060-0.060 0.14-0.14 0.2-0.2 0.66-0.74 1.2-1.56 1.56-2.46 0.28-0.76 0.48-1.54 0.54-2.34 0-0.2 0.020-0.4 0.020-0.58 0-0.9-0.16-1.8-0.46-2.62-0.26-0.78-0.66-1.52-1.16-2.18zM34.66 11.14c-0.3-0.060-0.6-0.080-0.92-0.080-1.66 0-3.24 0.66-4.42 1.8-0.16 0.18-0.32 0.34-0.46 0.52-0.080 0.1-0.18 0.22-0.26 0.34-0.72 1.020-1.1 2.24-1.1 3.5 0 0.2 0.040 0.4 0.14 0.58 0.060 0.1 0.12 0.2 0.22 0.3 0.16 0.16 0.38 0.26 0.6 0.32 0.080 0.020 0.18 0.040 0.28 0.040 0.34 0 0.64-0.14 0.88-0.36 0.24-0.24 0.38-0.56 0.38-0.88 0-0.72 0.22-1.44 0.62-2.060 0.14-0.2 0.32-0.4 0.5-0.58 0.34-0.32 0.74-0.58 1.18-0.78 0.54-0.2 1.1-0.3 1.66-0.26 0.18 0 0.34 0.020 0.52 0.060 0.6 0.12 1.16 0.38 1.64 0.76 0.1 0.080 0.18 0.16 0.28 0.24 0.52 0.52 0.88 1.18 1.020 1.9 0.040 0.24 0.060 0.48 0.080 0.72v0 0.020c-0.020 0.48-0.1 0.94-0.3 1.4 0 0.020-0.020 0.040-0.020 0.060-0.12 0.28-0.28 0.54-0.46 0.78-0.26 0.3-0.56 0.58-0.9 0.82-0.56 0.36-1.22 0.58-1.9 0.6-0.060 0.020-0.12 0.020-0.18 0.020h-32.5c-0.34 0-0.64 0.12-0.88 0.36-0.24 0.22-0.36 0.54-0.36 0.86 0 0.34 0.12 0.64 0.36 0.88 0.24 0.22 0.54 0.36 0.88 0.36h24.38c0.68 0 1.32 0.22 1.86 0.6 0.12 0.1 0.24 0.2 0.34 0.3 0.44 0.42 0.72 0.96 0.84 1.54 0.020 0.060 0.040 0.12 0.040 0.18 0.020 0.16 0.040 0.3 0.040 0.46 0 0.72-0.26 1.42-0.74 1.96-0.060 0.080-0.12 0.14-0.18 0.22-0.6 0.56-1.38 0.9-2.22 0.88-0.74 0-1.46-0.26-2.040-0.72-0.56-0.48-0.94-1.14-1.080-1.86v-0.080c-0.020-0.14-0.080-0.28-0.14-0.4 0-0.020-0.020-0.040-0.040-0.060-0.080-0.14-0.18-0.26-0.32-0.36s-0.28-0.16-0.44-0.2c0 0 0 0-0.020 0 0 0 0 0 0 0-0.080-0.020-0.16-0.040-0.24-0.040s-0.16 0-0.26 0.020c-0.12 0.020-0.24 0.060-0.34 0.12-0.040 0-0.080 0.020-0.12 0.060-0.14 0.080-0.26 0.2-0.36 0.32v0c-0.080 0.14-0.16 0.3-0.18 0.46-0.040 0.16-0.040 0.32-0.020 0.48l0.020 0.080c0.22 1.3 0.9 2.48 1.92 3.34 0.1 0.080 0.22 0.16 0.32 0.24 0.96 0.7 2.14 1.080 3.34 1.080 1.22 0 2.38-0.4 3.34-1.080 0.080-0.060 0.14-0.12 0.22-0.18 0.14-0.12 0.3-0.24 0.42-0.38 0.28-0.26 0.5-0.54 0.72-0.84 0.26-0.4 0.48-0.82 0.64-1.28 0.2-0.58 0.3-1.18 0.3-1.78 0-0.28-0.020-0.54-0.060-0.8 0-0.080-0.020-0.18-0.040-0.26-0.14-0.74-0.44-1.42-0.84-2.020h3.44c1.54 0 3-0.56 4.14-1.56 0.1-0.080 0.2-0.16 0.28-0.24 0.62-0.62 1.1-1.34 1.4-2.14 0.28-0.7 0.44-1.44 0.44-2.22 0-1.64-0.66-3.2-1.84-4.36-0.38-0.38-0.82-0.7-1.3-0.96-0.54-0.32-1.12-0.54-1.74-0.68-0.14-0.040-0.3-0.060-0.46-0.080z"></path>
</symbol>


<symbol id="icon-next" viewBox="0 0 18 32">
<path d="M0.586 31.414c-0.781-0.781-0.781-2.047 0-2.828l12.586-12.586-12.586-12.586c-0.781-0.781-0.781-2.047 0-2.828s2.047-0.781 2.828 0l14 14c0.781 0.781 0.781 2.047 0 2.828l-14 14c-0.781 0.781-2.047 0.781-2.828 0z"></path>
</symbol>


<symbol id="icon-previous" viewBox="0 0 18 32">
<path d="M17.414 0.586c0.781 0.781 0.781 2.047 0 2.828l-12.586 12.586 12.586 12.586c0.781 0.781 0.781 2.047 0 2.828s-2.047 0.781-2.828 0l-14-14c-0.781-0.781-0.781-2.047 0-2.828l14-14c0.781-0.781 2.047-0.781 2.828 0z"></path>
</symbol>

</defs>
</svg>
